HIERARCHY
ROOT root
{
	OFFSET	0	13.1	24.9
	CHANNELS 6  Xposition Yposition Zposition Xrotation Yrotation Zrotation
	JOINT spine_1
	{
		OFFSET	0	9.99999	0
		CHANNELS 3  Xrotation Yrotation Zrotation
		JOINT spine_2
		{
			OFFSET	0	112	-10
			CHANNELS 3  Xrotation Yrotation Zrotation
			JOINT spine_3
			{
				OFFSET	0	206.5	19.3
				CHANNELS 3  Xrotation Yrotation Zrotation
				JOINT spine_4
				{
					OFFSET	0	110.4	14.6
					CHANNELS 3  Xrotation Yrotation Zrotation
					JOINT neck_1
					{
						OFFSET	0	71.8	-50.3
						CHANNELS 3  Xrotation Yrotation Zrotation
						JOINT neck_2
						{
							OFFSET	0	86.2	-25.8
							CHANNELS 3  Xrotation Yrotation Zrotation
							JOINT head_ee
							{
								OFFSET	0	179.8	-8.7
								CHANNELS 3  Xrotation Yrotation Zrotation
								End Site
								{
									OFFSET	1	0	0
								}
							}
						}
					}
					JOINT left_clavicle
					{
						OFFSET	-43.2	22.4	-70.8
						CHANNELS 3  Xrotation Yrotation Zrotation
						JOINT left_shoulder
						{
							OFFSET	-93.9	-5.79999	48.7
							CHANNELS 3  Xrotation Yrotation Zrotation
							JOINT left_elbow
							{
								OFFSET	-291.4	-30.8	15.2
								CHANNELS 3  Xrotation Yrotation Zrotation
								JOINT left_lowarm_twist
								{
									OFFSET	-110.7	-3.89999	13.6
									CHANNELS 3  Xrotation Yrotation Zrotation
									JOINT left_hand
									{
										OFFSET	-110.7	-3.89999	13.6
										CHANNELS 3  Xrotation Yrotation Zrotation
										JOINT left_ee
										{
											OFFSET	-80.8	-5.10001	12.1
											CHANNELS 3  Xrotation Yrotation Zrotation
											End Site
											{
												OFFSET	1	0	0
											}
										}
									}
								}
							}
						}
					}
					JOINT right_clavicle
					{
						OFFSET	43.2	22.4	-70.8
						CHANNELS 3  Xrotation Yrotation Zrotation
						JOINT right_shoulder
						{
							OFFSET	93.9	-5.79999	48.7
							CHANNELS 3  Xrotation Yrotation Zrotation
							JOINT right_elbow
							{
								OFFSET	291.4	-30.8	15.2
								CHANNELS 3  Xrotation Yrotation Zrotation
								JOINT right_lowarm_twist
								{
									OFFSET	110.7	-3.89999	13.6
									CHANNELS 3  Xrotation Yrotation Zrotation
									JOINT right_hand
									{
										OFFSET	110.7	-3.89999	13.6
										CHANNELS 3  Xrotation Yrotation Zrotation
										JOINT right_ee
										{
											OFFSET	80.8	-5.10001	12.1
											CHANNELS 3  Xrotation Yrotation Zrotation
											End Site
											{
												OFFSET	1	0	0
											}
										}
									}
								}
							}
						}
					}
				}
			}
		}
	}
	JOINT left_hip
	{
		OFFSET	-82.8	-127.5	0.300001
		CHANNELS 3  Xrotation Yrotation Zrotation
		JOINT left_knee
		{
			OFFSET	-28.2	-396.7	2.2
			CHANNELS 3  Xrotation Yrotation Zrotation
			JOINT left_ankle
			{
				OFFSET	-11.7	-411.3	35.4
				CHANNELS 3  Xrotation Yrotation Zrotation
				JOINT left_toes
				{
					OFFSET	0	-60	-88.6
					CHANNELS 3  Xrotation Yrotation Zrotation
					JOINT left_foot_ee
					{
						OFFSET	-22.5	-16.5	-42.2
						CHANNELS 3  Xrotation Yrotation Zrotation
						End Site
						{
							OFFSET	1	0	0
						}
					}
				}
			}
		}
	}
	JOINT right_hip
	{
		OFFSET	82.8	-127.5	0.300001
		CHANNELS 3  Xrotation Yrotation Zrotation
		JOINT right_knee
		{
			OFFSET	28.2	-396.7	2.2
			CHANNELS 3  Xrotation Yrotation Zrotation
			JOINT right_ankle
			{
				OFFSET	11.7	-411.3	35.4
				CHANNELS 3  Xrotation Yrotation Zrotation
				JOINT right_toes
				{
					OFFSET	0	-60	-88.6
					CHANNELS 3  Xrotation Yrotation Zrotation
					JOINT right_foot_ee
					{
						OFFSET	22.5	-16.5	-42.2
						CHANNELS 3  Xrotation Yrotation Zrotation
						End Site
						{
							OFFSET	1	0	0
						}
					}
				}
			}
		}
	}
}
MOTION
Frames: 9
Frame Time: 0.02
853.333 716.004 -1508.36 175.528 75.375 -176.378 0.46122 -0.459925 1.22522 0.461895 -0.536951 1.19348 0.450636 -0.767604 1.05996 0.449555 -0.590582 1.16787 -22.8131 -3.41084 -8.19255 -22.6358 -2.82741 -9.17043 -0.0 0.0 -0.0 -3.16825 -8.34234 -7.54792 -13.3238 -16.6462 76.0181 0.459706 -12.8291 0.0516828 -13.0453 -0.63775 1.53763 5.35824 31.9156 45.8239 -0.0 0.0 -0.0 8.15094 -0.0847776 -15.8883 -15.1394 12.7638 -55.2059 2.18606 47.2734 -0.956829 18.4299 -0.277125 2.32781 -2.5896 24.4442 28.1384 0.0 0.0 0.0 21.3008 -22.5495 6.85584 3.78553 -0.174296 -0.554575 -11.8965 13.9573 1.78524 -27.9893 0.0 0.0 -0.0 0.0 -0.0 -10.5355 5.288 -12.3222 2.68051 0.119628 0.393874 22.058 -17.9146 3.03792 40.2662 -0.0 -0.0 0.0 0.0 0.0 
840.639 717.575 -1506.94 175.523 75.5657 -176.409 0.431002 -0.145827 1.08479 0.431631 -0.214556 1.07331 0.427717 -0.427895 1.00745 0.426397 -0.263427 1.06238 -22.4123 -3.78579 -5.82482 -22.3496 -4.59565 -7.12927 -0.0 0.0 -0.0 -2.96938 -8.81015 -7.20541 -11.1843 -16.5249 75.7474 0.456068 -12.7309 0.0508779 -13.3702 -0.658044 1.57393 5.35042 31.8514 45.7636 -0.0 0.0 -0.0 8.28846 0.146746 -16.1697 -15.8291 11.4029 -55.8803 1.9109 43.4242 -0.760966 17.1249 -0.282286 2.16121 -2.66033 25.4261 29.0004 0.0 0.0 0.0 20.8744 -22.728 6.78724 1.87842 -0.0818978 -0.276595 -10.0436 11.267 1.49894 -27.5349 0.0 0.0 -0.0 0.0 -0.0 -10.4492 4.33891 -12.4587 0.95335 0.0404297 0.140708 24.4193 -18.0845 3.32819 40.2141 -0.0 -0.0 0.0 0.0 0.0 
827.245 718.985 -1502.9 176.229 75.9369 -176.925 0.254085 -0.264085 1.24778 0.254886 -0.342943 1.22845 0.247632 -0.58869 1.13145 0.246072 -0.402624 1.21021 -23.0029 -3.731 -7.43212 -22.8701 -3.81921 -8.62792 -0.0 0.0 -0.0 -1.95754 -8.70953 -5.08084 -11.3433 -16.7852 74.2227 0.503532 -14.006 0.0618531 -12.6522 -0.613476 1.49357 5.274 31.7349 45.1432 -0.0 0.0 -0.0 8.38253 1.68164 -16.3874 -17.4337 10.5906 -57.1169 1.74354 40.8135 -0.648693 17.5052 -0.281174 2.20977 -2.63444 26.4471 29.1665 0.0 0.0 0.0 20.3953 -22.8104 6.65807 3.23504 -0.146674 -0.474647 -13.0618 15.5257 1.96825 -28.3998 0.0 0.0 -0.0 0.0 -0.0 -10.7241 4.67583 -12.0523 1.20302 0.0514052 0.177447 22.2571 -18.7296 3.07133 40.2426 -0.0 -0.0 0.0 0.0 0.0 
808.586 722.486 -1501.77 175.878 76.3223 -176.459 0.351619 -0.157708 1.0753 0.352234 -0.225809 1.06309 0.34815 -0.438222 0.994547 0.346876 -0.275661 1.05127 -23.1047 -3.23653 -7.30157 -22.9677 -2.93633 -8.28313 -0.0 0.0 -0.0 -2.04515 -9.48466 -5.37373 -9.6734 -16.9171 73.8289 0.545105 -15.1113 0.0723038 -12.3917 -0.597562 1.46429 5.2419 31.2999 44.9036 -0.0 0.0 -0.0 8.3854 2.24935 -16.4006 -20.0104 9.87828 -58.9293 1.57853 38.0212 -0.54389 16.6991 -0.283149 2.10684 -2.36505 25.0047 26.7218 0.0 0.0 0.0 20.4896 -24.6354 4.97239 0.353329 -0.0147107 -0.0522254 -12.8539 10.225 1.92352 -27.6716 0.0 0.0 -0.0 0.0 -0.0 -11.4973 5.55412 -12.0505 0.060313 0.00248847 0.00892103 23.0433 -17.1093 3.15097 40.1235 -0.0 -0.0 0.0 0.0 0.0 
790.408 725.857 -1501.61 174.284 75.1855 -174.608 0.387112 -0.155581 0.9446 0.387583 -0.21537 0.932787 0.384146 -0.400829 0.869379 0.383184 -0.258502 0.921767 -23.7758 -3.56072 -9.20712 -23.5494 -2.80747 -10.2404 -0.0 0.0 -0.0 -2.57362 -9.66331 -6.5057 -8.92801 -16.5279 73.7835 0.731846 -19.9274 0.128568 -13.6363 -0.674811 1.60356 5.08851 31.6745 43.6568 -0.0 0.0 -0.0 8.40458 2.13228 -16.4385 -21.1546 9.02657 -59.9568 1.27553 32.2857 -0.369209 18.3403 -0.277601 2.31638 -2.33181 27.924 27.5068 0.0 0.0 0.0 19.0475 -23.7272 4.59896 -0.85781 0.0343697 0.127154 -7.42178 8.47349 1.10228 -26.5355 0.0 0.0 -0.0 0.0 -0.0 -11.3411 4.91403 -12.0255 -1.73972 -0.067713 -0.258389 22.8376 -17.3087 3.1278 40.1838 -0.0 -0.0 0.0 0.0 0.0 
770.883 727.057 -1506.12 174.645 74.193 -174.506 0.403925 -0.161526 0.866396 0.404316 -0.216328 0.854363 0.401139 -0.385555 0.79252 0.400353 -0.255558 0.84346 -22.6663 -2.82405 -7.31182 -22.5218 -2.07855 -8.0781 -0.0 0.0 -0.0 -2.66151 -9.86714 -6.72056 -8.20844 -16.9182 73.0951 0.832054 -22.4001 0.164755 -13.31 -0.654264 1.56721 4.97179 31.2722 42.7529 -0.0 0.0 -0.0 8.10017 2.38192 -15.8175 -22.9808 8.90687 -62.7333 1.10655 28.7286 -0.283386 17.8355 -0.279946 2.25195 -2.34152 27.6319 27.476 0.0 0.0 0.0 17.8957 -24.2763 3.47247 -1.83005 0.0710138 0.271859 -7.28967 5.20545 1.08437 -26.1109 0.0 0.0 -0.0 0.0 -0.0 -10.9963 4.73627 -12.9901 -3.80019 -0.137705 -0.566849 24.8091 -17.5112 3.36836 40.2097 -0.0 -0.0 0.0 0.0 0.0 
755.469 726.682 -1503.97 173.009 73.6771 -172.205 0.271288 -0.298139 0.733311 0.271522 -0.344196 0.712855 0.267208 -0.483441 0.626834 0.266859 -0.37838 0.695314 -22.3876 -3.15865 -8.33186 -22.1987 -2.21362 -9.15996 -0.0 0.0 -0.0 -2.34534 -9.79365 -6.0462 -7.23415 -16.9974 73.1191 0.951494 -25.2361 0.213003 -13.5347 -0.66839 1.59225 4.71435 31.0829 40.7877 -0.0 0.0 -0.0 8.44781 2.35364 -16.5299 -25.0908 8.80281 -63.4483 0.943393 25.0477 -0.209561 16.2798 -0.283603 2.05328 -1.85929 27.8804 24.1924 0.0 0.0 0.0 17.7368 -25.9788 2.68271 -5.51464 0.187452 0.825251 -3.3521 6.73375 0.49443 -25.387 0.0 0.0 -0.0 0.0 -0.0 -10.8255 4.63877 -13.6293 -6.1151 -0.203042 -0.916081 26.9762 -17.4721 3.62275 39.976 -0.0 -0.0 0.0 0.0 0.0 
739.801 729.695 -1502.57 173.356 73.4509 -172.28 0.367813 -0.307949 0.749223 0.368055 -0.354999 0.728111 0.363506 -0.496077 0.640376 0.363145 -0.388718 0.710682 -22.4748 -4.16527 -7.51624 -22.3471 -4.55021 -8.86916 -0.0 0.0 -0.0 -2.23466 -11.3517 -6.03671 -7.27083 -17.0933 72.6967 1.14669 -29.5971 0.302947 -13.6205 -0.673812 1.6018 4.5379 30.5461 39.4678 -0.0 0.0 -0.0 8.18356 2.46227 -15.9888 -27.5338 10.0677 -64.9435 0.917849 24.4498 -0.198867 15.9777 -0.283688 2.0147 -2.14752 28.4652 26.3967 0.0 0.0 0.0 16.3381 -25.3978 2.32661 -5.58912 0.189437 0.836509 -0.20266 5.96717 0.0296991 -24.8124 0.0 0.0 -0.0 0.0 -0.0 -9.1721 3.63546 -13.3718 -11.0242 -0.294623 -1.66359 27.2521 -16.2599 3.64049 40.1637 -0.0 -0.0 0.0 0.0 0.0 
727.968 726.719 -1508.01 171.812 73.7779 -170.915 0.300957 -0.25564 0.717759 0.301193 -0.300794 0.700039 0.297504 -0.437999 0.623451 0.297117 -0.334042 0.684798 -22.2121 -2.74052 -6.54323 -22.0983 -2.21918 -7.30709 -0.0 0.0 -0.0 -2.27221 -13.6031 -6.43036 -8.81648 -16.8746 71.595 1.53612 -37.2667 0.517986 -12.8417 -0.625144 1.51484 4.21754 30.8117 37.1734 -0.0 0.0 -0.0 8.3393 2.53829 -16.3089 -28.5837 9.3429 -65.6015 0.806485 21.777 -0.15514 14.9088 -0.282354 1.87817 -1.72273 28.3027 23.4034 0.0 0.0 0.0 15.4793 -24.8993 1.50877 -7.92009 0.24416 1.19001 4.78497 2.55077 -0.694845 -24.2727 0.0 0.0 -0.0 0.0 -0.0 -8.40481 3.0489 -13.3004 -13.715 -0.317558 -2.07577 31.444 -12.084 4.06336 40.1044 -0.0 -0.0 0.0 0.0 0.0 
